<svg id="Capa_1" enable-background="new 0 0 497 497" height="512" viewBox="0 0 497 497" width="512" xmlns="http://www.w3.org/2000/svg"><g><path d="m248.6 0-.2 497c137.242.055 248.544-111.157 248.6-248.4.055-137.242-111.157-248.544-248.4-248.6z" fill="#ffb35c"/><path d="m467 248.588c.055-137.242-97.725-248.539-218.4-248.588-137.242-.055-248.544 111.157-248.6 248.4s111.157 248.544 248.4 248.6c120.674.049 218.544-111.169 218.6-248.412z" fill="#ffd06a"/><circle cx="248.445" cy="383.5" fill="#ffb35c" r="15"/><circle cx="98.488" cy="278.439" fill="#ff974f" r="30"/><circle cx="398.488" cy="278.561" fill="#ff974f" r="30"/><path d="m143.506 233.458c.007-16.569 13.444-29.995 30.012-29.988s29.995 13.444 29.988 30.012z" fill="#ffb35c"/><path d="m293.506 233.518c.007-16.569 13.444-29.995 30.012-29.988s29.995 13.444 29.988 30.012z" fill="#ffb35c"/><path d="m248.507 345.947c-29.1 0-58.191-11.08-80.336-33.242-2.928-2.93-2.926-7.679.005-10.607 2.93-2.928 7.679-2.925 10.606.004 38.415 38.446 100.945 38.471 139.394.056 2.93-2.928 7.679-2.925 10.606.004 2.928 2.93 2.926 7.679-.005 10.607-22.134 22.118-51.206 33.178-80.27 33.178z" fill="#ff3e3a"/><path d="m255.951 376.003c-.001 0-.002 0-.003 0l-15-.006c-4.143-.001-7.499-3.361-7.497-7.503.002-4.141 3.359-7.497 7.5-7.497h.003l15 .006c4.143.001 7.499 3.361 7.497 7.503-.002 4.141-3.359 7.497-7.5 7.497z" fill="#ff974f"/><g fill="#a93455"><path d="m203.506 240.982c-.001 0-.002 0-.003 0-4.143-.002-7.499-3.361-7.497-7.503.005-12.407-10.084-22.504-22.49-22.509-.003 0-.007 0-.01 0-12.402 0-22.495 10.087-22.5 22.491-.002 4.141-3.359 7.497-7.5 7.497-.001 0-.002 0-.003 0-4.143-.002-7.499-3.361-7.497-7.503.009-20.671 16.831-37.485 37.5-37.485h.016c20.678.008 37.493 16.838 37.484 37.515-.002 4.141-3.36 7.497-7.5 7.497z"/><path d="m353.506 241.042c-.001 0-.002 0-.003 0-4.143-.002-7.499-3.361-7.497-7.503.003-6.01-2.336-11.661-6.583-15.913-4.248-4.251-9.897-6.594-15.907-6.597-.003 0-.007 0-.01 0-12.402 0-22.495 10.087-22.5 22.491-.002 4.141-3.359 7.497-7.5 7.497-.001 0-.002 0-.003 0-4.143-.002-7.499-3.361-7.497-7.503.009-20.671 16.831-37.485 37.5-37.485h.016c10.017.004 19.432 3.909 26.512 10.995 7.08 7.085 10.977 16.504 10.973 26.521-.003 4.142-3.361 7.497-7.501 7.497z"/></g></g></svg>